#!OML:ASF E:\acrobat2\Project_11_07_03\Capture day 1\Session 1\Acrobat.ASF
:FULLY-SPECIFIED
:DEGREES
568
root 14.8199 5.98701 17.9521 -140.157 45.457 -21.63
lowerback 34.7018 0.178678 -3.872
upperback 15.747 -0.0457816 -2.37143
thorax -0.247243 0.379072 -0.427624
lowerneck -0.713369 -1.68112 0.230752
upperneck 17.1094 -2.08925 -0.714901
head 5.24912 -0.998032 -0.354386
rclavicle -3.65764e-014 -1.15295e-014
rhumerus -11.8935 -13.1984 4.03782
rradius 19.3933
rwrist 7.3959
rhand -4.83277 -60.5725
rfingers 7.12502
rthumb 20.9541 -89.4607
lclavicle -3.65764e-014 -1.15295e-014
lhumerus 10.3541 -33.3446 -15.879
lradius 21.4004
lwrist 366.718
lhand 10.0848 3.40999
lfingers 7.12502
lthumb 35.2068 29.9175
rfemur -97.558 -13.4455 5.30053
rtibia 57.1271
rfoot 1.14697 -5.63391
rtoes 10.7994
lfemur -97.4507 11.1333 -19.6879
ltibia 60.5451
lfoot 10.2367 -2.16074
ltoes -11.4128
569
root 14.8149 5.98675 17.9686 -139.951 44.6477 -21.0619
lowerback 35.1078 -0.0992447 -3.1423
upperback 15.6932 -0.194228 -2.20353
thorax -0.461323 0.340652 -0.593517
lowerneck -0.711658 -1.71276 0.343093
upperneck 17.0476 -2.13355 -0.774298
head 5.22741 -1.01788 -0.393279
rclavicle -4.92986e-014 2.82274e-014
rhumerus -11.9219 -20.9237 4.53258
rradius 19.5396
rwrist 15.4473
rhand -3.88695 -60.1851
rfingers 7.12502
rthumb 21.8625 -88.97
lclavicle -4.92986e-014 2.82274e-014
lhumerus 10.141 -33.0428 -15.7274
lradius 21.3982
lwrist 366.33
lhand 10.0433 3.43145
lfingers 7.12502
lthumb 35.1674 29.9483
rfemur -97.446 -13.5794 6.11982
rtibia 57.2575
rfoot 1.11477 -5.84462
rtoes 9.0901
lfemur -97.6684 11.0165 -19.369
ltibia 60.6074
lfoot 10.6415 -2.53928
ltoes -11.8284
570
root 14.8101 5.99657 17.9429 -140.104 45.5169 -21.3363
lowerback 34.7688 0.189904 -3.76856
upperback 15.7057 -0.00647261 -2.51254
thorax -0.318553 0.414625 -0.641805
lowerneck -0.535709 -1.78749 0.303381
upperneck 16.7434 -2.27585 -0.530292
head 5.10627 -1.07827 -0.313833
rclavicle -3.81667e-014 -1.39149e-014
rhumerus -12.0482 -23.8476 5.01012
rradius 19.3226
rwrist 18.6413
rhand -2.96256 -60.2283
rfingers 7.12502
rthumb 22.7499 -88.907
lclavicle -3.81667e-014 -1.39149e-014
lhumerus 10.2937 -33.2511 -15.9278
lradius 21.4915
lwrist 366.509
lhand 9.93399 3.50826
lfingers 7.12502
lthumb 35.0637 30.0494
rfemur -97.8136 -13.3544 5.77382
rtibia 57.227
rfoot 1.43397 -5.51655
rtoes 10.2382
lfemur -97.8116 11.1652 -19.8853
ltibia 60.7801
lfoot 10.1377 -2.19759
ltoes -12.5466
571
root 14.8033 6.01801 17.9444 -140.569 46.0006 -22.4535
lowerback 34.4549 0.365135 -4.60981
upperback 15.5791 -0.0589261 -2.73612
thorax -0.325792 0.336398 -0.416485
lowerneck -0.486643 -1.83915 0.469565
upperneck 16.7161 -2.35075 -0.578579
head 5.08658 -1.10879 -0.359103
rclavicle -6.36111e-014 2.5842e-014
rhumerus -12.4467 -11.5522 4.91856
rradius 19.5637
rwrist 6.37385
rhand -4.30804 -61.7436
rfingers 7.12502
rthumb 21.4581 90.5752
lclavicle -6.36111e-014 2.5842e-014
lhumerus 10.4233 -32.9123 -15.9886
lradius 21.4833
lwrist 366.067
lhand 9.8842 3.47814
lfingers 7.12502
lthumb 35.0165 30.0303
rfemur -98.3949 -13.6623 4.87936
rtibia 57.3176
rfoot 1.57035 -5.45104
rtoes 12.7877
lfemur -98.4314 10.9747 -21.2128
ltibia 60.8389
lfoot 10.1904 -2.23997
ltoes -13.3694
572
root 14.7947 6.03034 17.9492 -140.514 45.9443 -22.065
lowerback 34.5686 0.426051 -4.50784
upperback 15.5812 0.052039 -2.77444
thorax -0.367069 0.406391 -0.544604
lowerneck -0.313612 -1.86017 0.972393
upperneck 16.5837 -2.35473 -0.931527
head 5.0055 -1.10258 -0.549208
rclavicle -8.74653e-014 -5.56597e-014
rhumerus -12.7179 -20.9655 5.486
rradius 19.7137
rwrist 16.1518
rhand -3.5524 -61.2832
rfingers 7.12502
rthumb 22.1837 90.0303
lclavicle -8.74653e-014 -5.56597e-014
lhumerus 10.5773 -32.8172 -16.203
lradius 21.4514
lwrist 365.93
lhand 9.89549 3.45432
lfingers 7.12502
lthumb 35.0272 30.004
rfemur -98.3227 -13.3903 5.00284
rtibia 57.3543
rfoot 1.54257 -5.61153
rtoes 14.2697
lfemur -98.4749 11.0613 -20.9661
ltibia 60.9236
lfoot 10.3534 -2.18347
ltoes -12.9194
573
root 14.7864 6.03601 17.9446 -140.115 45.811 -21.4328
lowerback 34.6335 0.395213 -4.13297
upperback 15.5168 0.123906 -2.81415
thorax -0.470183 0.47039 -0.804951
lowerneck -0.21041 -1.90538 1.4545
upperneck 16.5142 -2.3818 -1.35005
head 4.95445 -1.11301 -0.758197
rclavicle 4.6118e-014 5.84427e-014
rhumerus -12.7067 -23.897 5.80476
rradius 19.3411
rwrist 19.3598
rhand -3.2048 -61.1032
rfingers 7.12502
rthumb 22.5174 -89.8103
lclavicle 4.6118e-014 5.84427e-014
lhumerus 10.7404 -33.2897 -16.619
lradius 21.5536
lwrist 366.486
lhand 9.96855 3.49119
lfingers 7.12502
lthumb 35.0965 30.0247
rfemur -98.4202 -13.119 5.38452
rtibia 57.3877
rfoot 1.61782 -5.70064
rtoes 14.3209
lfemur -98.6392 11.1655 -20.5505
ltibia 60.9429
lfoot 10.5367 -2.16133
ltoes -11.9468
574
root 14.7796 6.03344 17.9452 -140.216 45.9053 -21.4519
lowerback 34.747 0.4136 -4.16083
upperback 15.471 0.128038 -2.94169
thorax -0.558504 0.47946 -0.926663
lowerneck -0.292362 -1.98067 1.61055
upperneck 16.6485 -2.47781 -1.47903
head 5.00443 -1.15906 -0.830313
rclavicle 5.725e-014 7.43455e-014
rhumerus -12.9792 -18.2103 5.76337
rradius 19.477
rwrist 13.704
rhand -3.70537 -61.9504
rfingers 7.12502
rthumb 22.0369 -269.285
lclavicle 5.725e-014 7.43455e-014
lhumerus 10.9109 -33.6785 -17.0204
lradius 21.6722
lwrist 367.034
lhand 9.85394 3.4966
lfingers 7.12502
lthumb 34.9878 30.0555
rfemur -98.4904 -13.0336 5.25622
rtibia 57.3921
rfoot 1.90792 -5.67887
rtoes 14.0082
lfemur -98.7226 11.1146 -20.6577
ltibia 60.934
lfoot 10.5841 -2.04635
ltoes -10.6891
575
root 14.7725 6.0269 17.9443 -140.151 45.9062 -21.1541
lowerback 34.8543 0.433059 -4.10545
upperback 15.4888 0.16959 -2.94143
thorax -0.5774 0.507104 -0.969426
lowerneck -0.352615 -2.02158 1.43484
upperneck 16.6857 -2.54329 -1.37284
head 5.02905 -1.19648 -0.772267
rclavicle 0 6.95746e-014
rhumerus -12.913 -24.0446 6.29822
rradius 19.3991
rwrist 19.5756
rhand -3.38865 -61.3889
rfingers 7.12502
rthumb 22.3409 -269.883
lclavicle 0 6.95746e-014
lhumerus 11.2714 -34.9192 -17.8366
lradius 21.82
lwrist 368.643
lhand 9.5482 3.67968
lfingers 7.12502
lthumb 34.6977 30.3058
rfemur -98.4701 -12.8394 5.36227
rtibia 57.3738
rfoot 2.09703 -5.81439
rtoes 13.4929
lfemur -98.7336 11.1212 -20.3931
ltibia 60.9105
lfoot 10.3945 -1.68488
ltoes -9.44099
576
root 14.7681 6.02962 17.9397 -140.359 46.0288 -21.2219
lowerback 34.9672 0.470714 -4.2647
upperback 15.475 0.157886 -2.99406
thorax -0.626996 0.495532 -0.939368
lowerneck -0.17526 -2.0218 1.27335
upperneck 16.4764 -2.56423 -1.16926
head 4.93961 -1.20569 -0.679398
rclavicle -1.59028e-014 -5.56597e-014
rhumerus -12.919 -7.36884 5.81505
rradius 19.597
rwrist 2.77599
rhand -5.11347 -62.8241
rfingers 7.12502
rthumb 20.6844 -268.258
lclavicle -1.59028e-014 -5.56597e-014
lhumerus 12.1239 -37.178 -19.4855
lradius 22.1168
lwrist 371.497
lhand 9.50967 4.03177
lfingers 7.12502
lthumb 34.6611 30.6663
rfemur -98.4867 -12.8531 5.34171
rtibia 57.3811
rfoot 2.31343 -5.74089
rtoes 13.5784
lfemur -98.7628 11.0627 -20.5383
ltibia 60.8997
lfoot 10.2009 -1.50691
ltoes -9.1204
577
root 14.7627 6.03563 17.9366 -140.621 46.1274 -21.3793
lowerback 35.0259 0.491668 -4.35884
upperback 15.5306 0.158174 -3.11668
thorax -0.583876 0.499294 -1.01884
lowerneck 0.33309 -1.97391 1.24937
upperneck 15.2515 -2.55125 -0.779977
head 4.99622 -1.1813 -0.590752
rclavicle 3.18055e-015 8.22969e-014
rhumerus -12.9588 -13.5763 6.24429
rradius 19.3122
rwrist 8.90551
rhand -5.0853 -62.5488
rfingers 7.12502
rthumb 20.7115 -268.536
lclavicle 3.18055e-015 8.22969e-014
lhumerus 11.8334 -35.8349 -18.8713
lradius 21.9771
lwrist 370.377
lhand 9.79752 3.96339
lfingers 7.12502
lthumb 34.9343 30.5348
rfemur -98.518 -12.9133 5.2452
rtibia 57.3914
rfoot 2.57828 -5.57814
rtoes 13.9214
lfemur -98.8185 10.9975 -20.788
ltibia 60.8787
lfoot 10.2255 -1.51568
ltoes -8.25364
578
root 14.7575 6.03948 17.9356 -140.753 46.1916 -21.3915
lowerback 35.1527 0.525845 -4.45139
upperback 15.4769 0.158709 -3.16254
thorax -0.68311 0.497691 -1.02095
lowerneck 0.0102193 -2.05708 1.59619
upperneck 16.085 -2.58961 -1.46615
head 4.77864 -1.22078 -0.819938
rclavicle 7.95139e-015 -1.59028e-014
rhumerus -13.1335 -11.4894 6.34471
rradius 19.4676
rwrist 6.9089
rhand -5.33221 -62.8238
rfingers 7.12502
rthumb 20.4742 -268.236
lclavicle 7.95139e-015 -1.59028e-014
lhumerus 11.9562 -36.0032 -19.0534
lradius 21.9927
lwrist 370.704
lhand 9.62609 4.16403
lfingers 7.12502
lthumb 34.7716 30.7731
rfemur -98.587 -12.8794 5.15245
rtibia 57.3927
rfoot 2.89016 -5.70522
rtoes 13.1507
lfemur -98.8818 10.9276 -20.8784
ltibia 60.8497
lfoot 10.1215 -1.51959
ltoes -8.19566
